<?xml version="1.0" encoding="UTF-8" standalone="no"?>
<!-- Created with Inkscape (http://www.inkscape.org/) -->

<svg
   width="74.863167mm"
   height="74.863182mm"
   viewBox="0 0 74.863167 74.863182"
   version="1.1"
   id="svg1"
   xml:space="preserve"
   inkscape:export-filename="qr.png"
   inkscape:export-xdpi="96"
   inkscape:export-ydpi="96"
   xmlns:inkscape="http://www.inkscape.org/namespaces/inkscape"
   xmlns:sodipodi="http://sodipodi.sourceforge.net/DTD/sodipodi-0.dtd"
   xmlns="http://www.w3.org/2000/svg"
   xmlns:svg="http://www.w3.org/2000/svg"><sodipodi:namedview
     id="namedview1"
     pagecolor="#505050"
     bordercolor="#eeeeee"
     borderopacity="1"
     inkscape:showpageshadow="0"
     inkscape:pageopacity="0"
     inkscape:pagecheckerboard="0"
     inkscape:deskcolor="#505050"
     inkscape:document-units="mm"><inkscape:page
       x="-2.192446e-13"
       y="0"
       width="74.863159"
       height="74.863182"
       id="page2"
       margin="0"
       bleed="0" /></sodipodi:namedview><defs
     id="defs1" /><g
     inkscape:label="Layer 1"
     inkscape:groupmode="layer"
     id="layer1"
     transform="translate(-67.608005,-110.99967)"><path
       style="fill:#000000"
       d="m 67.608002,177.91604 v -7.94678 h 7.946784 7.946784 v 7.94678 7.94679 h -7.946784 -7.946784 z m 13.630129,0.0371 -0.0389,-5.68158 -5.681579,-0.0389 -5.681579,-0.0389 v 5.72048 5.72048 h 5.720478 5.720479 z m -9.074963,3.35448 c -0.05446,-0.0545 -0.09902,-1.59183 -0.09902,-3.41637 v -3.31735 h 3.416374 3.416375 v 3.41637 3.41638 h -3.317349 c -1.824542,0 -3.361911,-0.0446 -3.416375,-0.099 z m 13.566473,3.44113 v -1.11403 h 2.302339 2.302339 v -3.41638 -3.41637 h -1.188304 -1.188304 v 2.30234 2.30234 h -1.114035 -1.114035 v -4.53041 -4.53041 h 1.114035 1.114035 v 1.11403 1.11404 h 1.194552 1.194553 l -0.04338,-1.15117 -0.04338,-1.15117 -1.151169,-0.0434 -1.15117,-0.0434 v -1.10779 -1.10779 h -1.114035 -1.114035 v -1.11403 -1.11404 h -4.53041 -4.53041 v -1.11403 -1.11404 h -1.114035 -1.114035 v -2.30234 -2.30234 h 1.114035 1.114035 v 1.11404 1.11403 h 2.221823 2.221822 l 0.04338,1.15117 0.04338,1.15117 1.15117,0.0434 1.151169,0.0434 v -1.19455 -1.19456 H 82.387535 81.2735 v -1.11403 -1.11404 h 1.114035 1.114035 v -1.11403 -1.11404 h -1.188304 -1.188304 v 1.11404 1.11403 h -1.114035 -1.114035 v -2.2242 -2.2242 l 2.265205,-0.041 2.265204,-0.041 0.04338,-1.15117 0.04338,-1.15117 H 82.393783 81.2735 v -1.11403 -1.11404 h 3.342106 3.342105 v -1.11403 -1.11404 h -3.416374 -3.416375 v 1.11404 1.11403 h -1.114035 -1.114035 v 1.11404 1.11403 h -1.114035 -1.114036 v -1.11403 -1.11404 h 1.114036 1.114035 v -2.30233 -2.30234 h 2.302339 2.302339 v -1.11404 -1.11403 h -3.416374 -3.416375 v 1.11403 1.11404 h -1.114035 -1.114035 v -1.11404 -1.11403 h -1.188304 -1.188304 v 2.30233 2.30234 h 1.188304 1.188304 v 1.11404 1.11403 h -1.188304 -1.188304 v 1.10779 1.10779 l 1.151169,0.0434 1.15117,0.0434 v 2.22807 2.22807 h -1.114035 -1.114035 l -0.04338,-1.15117 -0.04338,-1.15117 h -2.221823 -2.221822 v -1.11403 -1.11404 h 1.114035 1.114036 v -1.11403 -1.11404 h -1.114036 -1.114035 v -3.41637 -3.41637 h 2.228071 2.22807 v -1.11404 -1.11403 h 2.302339 2.302339 v -1.18831 -1.1883 h -4.530409 -4.53041 v -1.11404 -1.11403 h 1.114035 1.114036 v -1.11404 -1.11403 h -1.114036 -1.114035 v -3.41638 -3.41637 h 1.114035 1.114036 v 2.30234 2.30234 h 2.302339 2.302339 v -1.18831 -1.1883 h -1.188304 -1.188304 v -1.11404 -1.11403 h 5.718714 5.718713 v 1.10779 1.10778 l -1.151169,0.0434 -1.15117,0.0434 -0.04338,1.15117 -0.04338,1.15117 h -2.221822 -2.221823 v 1.11403 1.11404 h 2.228071 2.22807 v 1.11403 1.11404 h 1.188304 1.188304 v 1.11016 1.11017 l -2.265204,0.041 -2.265205,0.041 -0.04338,1.15117 -0.04338,1.15117 h 2.308588 2.308587 v 1.11403 1.11404 h 1.114036 1.114035 v -1.11404 -1.11403 h 1.114035 1.114035 v -1.18831 -1.1883 h -1.114035 -1.114035 v -4.53041 -4.53041 h 1.114035 1.114035 v -1.11404 -1.11403 h -1.114035 -1.114035 v -6.83275 -6.83275 h 2.302339 2.302339 v -1.11403 -1.11404 h 1.114035 1.114036 v 3.41638 3.41637 h 1.114035 1.114035 v 1.11404 1.11403 H 93.676425 92.56239 v 2.30234 2.30234 h -1.114036 -1.114035 v 2.22807 2.22807 h -1.188304 -1.188304 v 3.41637 3.41638 h 2.302339 2.30234 v 1.11403 1.11404 h -1.114036 -1.114035 v 2.30234 2.30234 h 1.114035 1.114036 v -1.11404 -1.11403 h 1.114035 1.114035 v -2.30234 -2.30234 h 1.107787 1.107787 l 0.04338,1.15117 0.04338,1.15117 1.15117,0.0434 1.15117,0.0434 v 1.10779 1.10779 h 1.114026 1.11404 v -1.11404 -1.11403 h 1.11403 1.11404 v 1.11403 1.11404 h 1.1883 1.18831 v -1.11404 -1.11403 h 2.22807 2.22807 v 3.3421 3.34211 h -1.11404 -1.11403 v 1.1883 1.1883 h -1.11404 -1.11403 v 2.22807 2.22807 h -1.18831 -1.1883 v 1.11404 1.11403 h -1.11404 -1.11403 v -2.22807 -2.22807 H 98.206834 94.79046 v -1.11403 -1.11404 H 93.676425 92.56239 v 3.33824 3.33824 l -2.265205,0.041 -2.265205,0.041 -0.04338,1.15117 -0.04338,1.15117 h 1.194552 1.194552 v 1.11404 1.11403 H 89.14602 87.957716 v 3.41638 3.41637 h 2.302339 2.30234 v -1.11403 -1.11404 h -1.114036 -1.114035 v -1.1883 -1.18831 h 1.114035 1.114036 v -2.22807 -2.22807 h 2.22807 2.22807 v 1.11404 1.11403 h 1.188304 1.188305 v -2.22807 -2.22807 h 1.114036 1.11404 v 1.11404 1.11403 h 2.30234 2.30234 v 1.11404 1.11403 h -2.30234 -2.30234 v 4.53041 4.53041 h 1.11403 1.11404 v -1.11403 -1.11404 h 1.1883 1.18831 v -1.10779 -1.10778 l -1.15117,-0.0434 -1.15117,-0.0434 v -1.11403 -1.11404 h 1.11403 1.11404 l 0.0434,1.15117 0.0434,1.15117 h 1.10779 1.10779 v 1.11404 1.11403 h 1.11403 1.11404 v -3.41637 -3.41638 h 1.11403 1.11404 v 1.11404 1.11403 h 2.30234 2.30234 v 1.18831 1.1883 h 1.10778 1.10779 l 0.0434,-1.15117 0.0434,-1.15117 1.15117,-0.0434 1.15117,-0.0434 v -1.10779 -1.10779 h -4.53041 -4.53041 v -1.11403 -1.11404 h 1.12028 1.12028 l -0.0434,-1.15117 -0.0434,-1.15117 h -1.11404 -1.11403 l -0.0434,1.15117 -0.0434,1.15117 h -2.22181 -2.22182 v -1.11403 -1.11404 h 1.11403 1.11404 v -1.1883 -1.18831 H 109.57 108.45597 v -1.11403 -1.11404 h 1.11403 1.11404 v -1.11403 -1.11404 h 3.41637 3.41638 v -1.1883 -1.1883 h -1.11404 -1.11403 v -1.11404 -1.11403 h -1.11404 -1.11403 v -1.11404 -1.11403 h 1.12028 1.12027 l -0.0434,-1.15117 -0.0434,-1.15117 -1.07052,-0.0435 -1.07053,-0.0435 -0.0435,-1.07052 -0.0435,-1.07052 -3.37924,-0.0399 -3.37924,-0.0399 v 1.11682 1.11683 h -1.18831 -1.1883 v -2.22807 -2.22807 h -2.22807 -2.228066 v 1.11403 1.11404 h 1.114026 1.11404 v 1.11403 1.11404 h -1.11404 -1.114026 v -1.11404 -1.11403 h -1.114036 -1.114035 v -1.11404 -1.11403 H 95.978764 94.79046 v -1.11404 -1.11403 H 93.676425 92.56239 v 1.11403 1.11404 h -1.114036 -1.114035 v -1.11404 -1.11403 h 1.114035 1.114036 v -1.18831 -1.1883 h 2.302339 2.302339 v -1.11404 -1.11403 h 2.228071 2.228071 v 1.11403 1.11404 h -1.11404 -1.114031 v 1.1883 1.18831 h 3.416371 3.41638 v -2.30234 -2.30234 h -1.18831 -1.1883 v -2.22807 -2.22807 h 1.1883 1.18831 v 2.22807 2.22807 h 1.11403 1.11404 v -2.22807 -2.22807 h 1.11403 1.11404 v 1.12028 1.12028 l 1.15117,-0.0434 1.15117,-0.0434 0.0436,-1.0769 0.0436,-1.0769 h 1.10753 1.10753 v 1.11403 1.11404 h 1.11403 1.11404 v -1.18831 -1.1883 h -1.11404 -1.11403 v -1.11403 -1.11404 h -1.11404 -1.11403 v -1.11403 -1.11404 h 1.11403 1.11404 v -2.30234 -2.30234 h -1.11404 -1.11403 v -1.11403 -1.11404 h -1.18831 -1.1883 v 1.11404 1.11403 h -1.11404 -1.11403 v -1.11403 -1.11404 h 1.11403 1.11404 v -1.11403 -1.11404 h 3.41637 3.41638 v 2.22807 2.22807 h 1.11403 1.11404 v 1.18831 1.1883 h -1.11404 -1.11403 v 1.11404 1.11403 h 1.11403 1.11404 v 1.11404 1.11403 h 2.30234 2.30234 v 2.30234 2.30234 h -1.11404 -1.11403 v 3.41637 3.41638 h 2.22807 2.22807 v -2.30234 -2.30234 h 5.71871 5.71871 v 2.30234 2.30234 h 1.11404 1.11403 v -1.18831 -1.1883 h 1.11404 1.11403 v 1.1883 1.18831 h -1.11403 -1.11404 v 1.11403 1.11404 h 1.11404 1.11403 v 1.11403 1.11404 h -1.11403 -1.11404 v -1.11404 -1.11403 h -1.11403 -1.11404 v 1.11403 1.11404 h -1.19455 -1.19455 l 0.0434,1.15117 0.0434,1.15117 3.37924,0.0399 3.37924,0.0399 v 1.11125 1.11125 h -1.11403 -1.11404 v 1.11403 1.11404 h -1.11403 -1.11404 v 1.11403 1.11404 h -2.30234 -2.30233 v 1.1883 1.1883 h 3.41637 3.41637 v -1.1883 -1.1883 h 1.11404 1.11403 v 2.30234 2.30233 h -1.11403 -1.11404 v 2.22421 2.2242 l -2.2652,0.041 -2.26521,0.041 -0.0434,1.15117 -0.0434,1.15117 h 1.19455 1.19455 v 1.11404 1.11403 h 1.11404 1.11403 v -1.11403 -1.11404 h 1.11404 1.11403 v 1.11404 1.11403 h -1.11403 -1.11404 v 1.11404 1.11403 h 1.11404 1.11403 v 3.41638 3.41637 h -1.11403 -1.11404 v 1.18831 1.1883 h 1.11404 1.11403 v 3.3421 3.34211 h -1.11403 -1.11404 v -1.11404 -1.11403 h -1.11403 -1.11404 v -1.11404 -1.11403 h -1.1883 -1.1883 v 2.22182 2.22182 l 1.15117,0.0434 1.15116,0.0434 0.041,2.2652 0.041,2.26521 h 1.11017 1.11016 v 1.11403 1.11404 h -1.11403 -1.11404 v -1.11404 -1.11403 h -3.41637 -3.41638 v 1.11403 1.11404 h -1.11403 -1.11404 v -1.11404 -1.11403 h 1.11404 1.11403 v -1.11404 -1.11403 h -2.30233 -2.30234 v 2.22807 2.22807 h -4.53041 -4.53041 v -1.11404 -1.11403 h -1.11404 -1.11403 v -1.11404 -1.11403 h -1.11404 -1.11403 v -1.18831 -1.1883 h 1.11403 1.11404 v 1.1883 1.18831 h 1.11403 1.11404 v -1.18831 -1.1883 h 2.30234 2.30234 v -2.22807 -2.22807 h -1.18831 -1.1883 v 1.11403 1.11404 h -4.53041 -4.53041 v 4.53041 4.53041 h -2.22807 -2.22807 v -1.11404 -1.11403 h 1.11403 1.11404 v -1.11404 -1.11403 h -2.30234 -2.30234 v 2.22807 2.22807 h -1.11404 -1.11403 v -1.11404 -1.11403 h -1.11404 -1.114031 v 1.11403 1.11404 h -1.114036 -1.114035 v -1.11404 -1.11403 h 1.114035 1.114036 v -1.11404 -1.11403 H 98.206834 97.01853 v 1.11403 1.11404 h -2.22807 -2.22807 v 1.11403 1.11404 h -3.416375 -3.416374 z m 38.619889,-2.22807 v -1.11403 h 1.11403 1.11404 v -1.18831 -1.1883 h 2.30234 2.30233 v 1.1883 1.18831 h 1.11404 1.11404 v -1.18831 -1.1883 h -1.11404 -1.11404 v -1.11404 -1.11403 h -2.30233 -2.30234 v 1.11403 1.11404 h -2.22807 -2.22807 v 2.30234 2.30234 h 1.11403 1.11404 z m -29.55907,-3.41637 v -2.30234 H 93.676425 92.56239 v -1.11404 -1.11403 h 1.114035 1.114035 v -1.1883 -1.18831 H 93.676425 92.56239 v 1.18831 1.1883 h -1.114036 -1.114035 v 1.11403 1.11404 h 1.114035 1.114036 v 2.30234 2.30234 h 1.114035 1.114035 z m 6.83275,0 v -2.30234 h 1.11403 1.11404 v 1.11403 1.11404 h 2.30234 2.30234 v -1.11404 -1.11403 h 1.11403 1.11404 v -1.11404 -1.11403 h 4.53041 4.53041 v -1.1883 -1.18831 h -1.11404 -1.11403 v -1.11403 -1.11404 h 2.30234 2.30234 v -2.22807 -2.22807 h -1.18831 -1.1883 v 1.11404 1.11403 h -1.11404 -1.11403 v -1.11403 -1.11404 h -2.30234 -2.30234 v 2.22807 2.22807 h -2.22807 -2.22807 v 1.18831 1.1883 h 1.11403 1.11404 v 1.11403 1.11404 h -2.22807 -2.22807 v 1.11403 1.11404 h -1.18831 -1.1883 v -2.22182 -2.22182 l 1.15117,-0.0434 1.15117,-0.0434 0.0434,-1.15117 0.0434,-1.15117 h -1.19455 -1.19455 v 1.11404 1.11403 h -1.11404 -1.11403 v -1.11403 -1.11404 h -1.11404 -1.114031 v -3.42262 -3.42262 l -1.15117,0.0434 -1.15117,0.0434 -0.04338,1.15117 -0.04338,1.15117 H 95.898247 94.79046 v 1.11404 1.11403 h 1.114035 1.114035 v 5.64445 5.64444 h 1.188304 1.188305 v 1.1883 1.18831 h 1.114031 1.11404 z m 11.43743,-8.02105 v -1.11404 h 1.11403 1.11404 v 1.11404 1.11403 h -1.11404 -1.11403 z m 18.12163,0.0743 v -3.41638 h -3.41637 -3.41637 v 3.41638 3.41637 h 3.41637 3.41637 z m -4.60467,-0.0743 v -1.11404 h 1.11403 1.11404 v 1.11404 1.11403 h -1.11404 -1.11403 z m 9.06082,-1.03977 v -2.30234 h 1.1883 1.1883 v 1.11404 1.11403 h 1.11404 1.11403 v -2.2242 -2.2242 l -2.2652,-0.041 -2.26521,-0.041 -0.0434,-1.15117 -0.0434,-1.15117 h -1.10779 -1.10778 v -1.11403 -1.11404 h 1.11403 1.11404 v -1.11403 -1.11404 h -3.34211 -3.34211 v -3.41637 -3.41638 h -1.1883 -1.1883 v -1.10778 -1.10779 l 1.15117,-0.0434 1.15117,-0.0434 0.0434,-1.15117 0.0434,-1.15117 h 2.22182 2.22183 v -1.11404 -1.11403 h 1.11403 1.11404 v -1.11404 -1.11403 h -1.11404 -1.11403 v -1.18831 -1.1883 h -1.11404 -1.11404 v 1.1883 1.18831 h -1.1883 -1.1883 v 2.22807 2.22807 h -1.11404 -1.11403 v 1.1883 1.1883 h -1.11404 -1.11403 v -3.41637 -3.41637 h 1.11403 1.11404 v -1.10779 -1.10779 l 1.15117,-0.0434 1.15117,-0.0434 0.0434,-1.15117 0.0434,-1.15117 h 1.10779 1.10778 v -2.22807 -2.22807 h 1.11404 1.11404 v 1.11403 1.11404 h 1.11403 1.11404 v -1.11404 -1.11403 h -1.11404 -1.11403 v -1.18831 -1.1883 h -1.11404 -1.11404 v 1.1883 1.18831 h -1.1883 -1.1883 v 1.11403 1.11404 h -1.11404 -1.11403 v 2.22807 2.22807 h -1.11404 -1.11403 v 1.1883 1.18831 h -1.11404 -1.11403 v -4.53041 -4.53041 h -1.18831 -1.1883 v 1.11403 1.11404 h -1.11404 -1.11403 v -3.41638 -3.41637 h -2.30234 -2.30234 v 1.11403 1.11404 h 1.1883 1.18831 v 3.41637 3.41638 h 2.22807 2.22807 v 1.11403 1.11404 h -1.11404 -1.11403 v 1.1883 1.18831 h -1.11404 -1.11403 v 1.11403 1.11404 h 1.11403 1.11404 v 1.11403 1.11404 h 1.11403 1.11404 v -1.11404 -1.11403 h 1.1883 1.18831 v 3.41637 3.41637 h -1.18831 -1.1883 v -1.11403 -1.11404 h -1.11404 -1.11403 v 2.22807 2.22807 h 1.11403 1.11404 v 1.11404 1.11403 h -1.11404 -1.11403 v 1.18831 1.1883 h 1.11403 1.11404 v -1.10778 -1.10779 l 1.15117,-0.0434 1.15117,-0.0434 0.0434,-1.15117 0.0434,-1.15117 h 2.22182 2.22183 v 2.30234 2.30234 h 1.11403 1.11404 v 1.11404 1.11403 h 1.1883 1.1883 v 1.10779 1.10779 l -1.15116,0.0434 -1.15117,0.0434 v 1.11404 1.11403 l 2.2652,0.041 2.26521,0.041 v 3.4125 3.41251 h 1.11403 1.11404 z m -49.908779,-8.02105 v -1.11404 h 1.114035 1.114035 v -1.11403 -1.11404 h -1.114035 -1.114035 v 1.11404 1.11403 H 84.615606 83.50157 v 1.11404 1.11403 h 1.114036 1.114035 z m 40.847959,0 v -1.11404 h -1.11404 -1.11403 v 1.11404 1.11403 h 1.11403 1.11404 z m -11.28889,-9.06082 v -1.11404 h -2.30234 -2.30234 v 1.11404 1.11403 h 2.30234 2.30234 z m 20.34971,0 v -1.11404 h -1.11404 -1.11403 v -1.11403 -1.11404 h -1.11404 -1.11404 v 1.11404 1.11403 h 1.11404 1.11404 v 1.11404 1.11403 h 1.11403 1.11404 z m -31.78714,-2.22807 v -1.11404 h 1.1883 1.18831 v -1.1883 -1.1883 h 1.11403 1.11404 v -2.22807 -2.22807 h -1.11404 -1.11403 v 1.11403 1.11404 h -1.18831 -1.1883 v 2.30233 2.30234 h -1.11404 -1.11403 v 1.11404 1.11403 h 1.11403 1.11404 z m -4.456141,-2.30234 v -1.1883 h 1.114031 1.11404 v -1.11404 -1.11403 h -1.11404 -1.114031 v 1.11403 1.11404 h -1.114036 -1.114035 v -2.22807 -2.22807 H 95.978764 94.79046 v 1.11403 1.11404 H 93.676425 92.56239 v 1.11403 1.11404 h 2.22807 2.22807 v 1.08927 c 0,0.59911 0.04456,1.13384 0.09903,1.18831 0.05446,0.0545 0.5892,0.099 1.188304,0.099 h 1.089279 z m -9.06082,-2.30234 v -1.11403 H 88.03198 85.729641 v 1.11403 1.11404 h 2.302339 2.302339 z m 22.726321,-11.28889 v -1.11403 h -2.30234 -2.30234 v 1.11403 1.11404 h 2.30234 2.30234 z m -2.37661,-4.60468 v -1.11403 h -1.11404 -1.11403 v 1.11403 1.11404 h 1.11403 1.11404 z m -20.349711,-5.6444 v -2.30234 h 1.114035 1.114036 v -1.11403 -1.11404 h -1.114036 -1.114035 v 1.11404 1.11403 h -1.188304 -1.188304 v 2.30234 2.30234 h 1.188304 1.188304 z m 31.756251,1.15117 -0.0434,-1.15117 h -1.11404 -1.11403 l -0.0434,1.15117 -0.0434,1.15117 h 1.2008 1.2008 z m -54.482568,37.46871 v -4.53041 h 1.114035 1.114036 v 4.53041 4.53041 h -1.114036 -1.114035 z m 27.182458,-8.02105 v -1.11404 h 2.302339 2.30234 v 1.11404 1.11403 H 97.092799 94.79046 Z M 81.2735,134.84002 v -1.11403 h 1.114035 1.114035 v 1.11403 1.11404 H 82.387535 81.2735 Z m 13.51696,-7.94678 v -2.22807 h 1.114035 1.114035 v 2.22807 2.22807 H 95.904495 94.79046 Z m -27.182458,-7.94678 v -7.94679 h 7.946784 7.946784 v 7.94679 7.94678 h -7.946784 -7.946784 z m 13.630129,-0.0371 0.0389,-5.68158 h -5.720479 -5.720478 v 5.72048 5.72048 l 5.681579,-0.0389 5.681579,-0.0389 z m -9.139642,0 0.03992,-3.37924 3.37924,-0.0399 3.37924,-0.0399 v 3.41917 3.41916 h -3.419163 -3.419164 z m 27.29665,6.86988 v -1.11403 h 1.114031 1.11404 v 1.11403 1.11404 h -1.11404 -1.114031 z M 126.5776,118.9465 v -7.94679 h 7.94678 7.94678 v 7.94679 7.94678 h -7.94678 -7.94678 z m 13.66549,0 v -5.71872 h -5.71871 -5.71871 v 5.61969 c 0,3.09083 0.0446,5.66425 0.099,5.71871 0.0545,0.0545 2.62789,0.099 5.71872,0.099 h 5.61968 z m -9.06082,-0.0771 v -3.41917 l 3.37924,0.0399 3.37924,0.0399 0.0399,3.37924 0.0399,3.37924 h -3.41916 -3.41917 z m -20.49824,4.5332 v -1.11404 h 1.11403 1.11404 v 1.11404 1.11403 h -1.11404 -1.11403 z m -13.516962,-2.22807 v -1.11404 h 4.530412 4.53041 v 1.11404 1.11403 h -4.53041 -4.530412 z m 11.288892,-2.22807 v -1.11404 h 2.22807 2.22807 v 1.11404 1.11403 h -2.22807 -2.22807 z m 13.6655,-2.30234 v -3.41638 h -1.18831 -1.1883 v -1.11403 -1.11404 h 1.1883 1.18831 v 1.11404 1.11403 h 1.11403 1.11404 v 3.41638 3.41637 h -1.11404 -1.11403 z m -27.331,-2.22807 v -3.41638 h 1.114035 1.114035 v 3.41638 3.41637 H 95.904495 94.79046 Z m 4.604679,2.22807 v -1.18831 h 1.114031 1.11404 v -1.11403 -1.11404 h 1.11403 1.11404 v -1.11403 -1.11404 h 1.19109 1.19109 l -0.0399,3.37924 -0.0399,3.37924 h -1.11404 -1.11403 l -0.0434,-1.15117 -0.0434,-1.15117 h -1.10778 -1.10779 v 1.18831 1.1883 h -1.11404 -1.114031 z"
       id="path1" /></g></svg>
