<?xml version="1.0" encoding="UTF-8" standalone="no"?>
<svg
   xmlns:dc="http://purl.org/dc/elements/1.1/"
   xmlns:cc="http://creativecommons.org/ns#"
   xmlns:rdf="http://www.w3.org/1999/02/22-rdf-syntax-ns#"
   xmlns:svg="http://www.w3.org/2000/svg"
   xmlns="http://www.w3.org/2000/svg"
   version="1.1"
   id="svg2"
   viewBox="0 0 64.000001 64.000001"
   height="64"
   width="64">
  <defs
     id="defs4" />
  <metadata
     id="metadata7">
    <rdf:RDF>
      <cc:Work
         rdf:about="">
        <dc:format>image/svg+xml</dc:format>
        <dc:type
           rdf:resource="http://purl.org/dc/dcmitype/StillImage" />
        <dc:title></dc:title>
      </cc:Work>
    </rdf:RDF>
  </metadata>
  <g
     transform="translate(0,-988.36216)"
     id="layer1">
    <g
       id="text3336"
       style="font-style:normal;font-variant:normal;font-weight:normal;font-stretch:normal;font-size:60px;line-height:125%;font-family:Palatino;-inkscape-font-specification:Palatino;text-align:center;letter-spacing:0px;word-spacing:0px;writing-mode:lr-tb;text-anchor:middle;fill:#000000;fill-opacity:1;stroke:none;stroke-width:1px;stroke-linecap:butt;stroke-linejoin:miter;stroke-opacity:1">
      <path
         id="path5220"
         style="font-style:normal;font-variant:normal;font-weight:normal;font-stretch:normal;font-size:55px;font-family:'JG Soyombo';-inkscape-font-specification:'JG Soyombo'"
         d="m 35.331525,999.17448 q 0,0.99002 -1.045,1.76002 -1.045,0.77 -2.2,0.77 -1.21,0 -2.255,-0.77 -1.045,-0.77 -1.045,-1.76002 0,-0.165 0.495,-1.32 0.55,-1.155 0.55,-1.76 l 0,-0.33 q 0.605,0.605 0.605,1.155 0,-0.055 -0.495,1.32 -0.11,0.275 0.165,0.44 0.275,0.165 0.495,0.165 0.385,-0.055 0.495,-0.55 0.11,-0.55 0.22,-1.21 0.055,-0.275 0.275,-0.77 0.275,-0.495 0.275,-0.88 0,-0.11 -0.275,-0.495 -0.275,-0.385 -0.275,-0.935 0,-0.66 0.99,-1.54 -0.33,0.55 -0.33,0.99 0,0.385 0.495,0.99 0.55,0.55 0.605,0.88 0,-0.11 -0.55,1.65 -0.165,0.495 0.33,1.21 0.275,0.385 0.715,0.495 0.275,0.055 0.385,0 0.11,-0.11 0.055,-0.44 0,-0.055 -0.22,-0.33 -0.165,-0.275 -0.11,-0.44 0.055,-0.33 0.22,-0.77 0.22,-0.44 0.22,-0.55 0,-0.495 -0.495,-0.88 1.045,0.22 1.045,0.825 0,-0.055 -0.22,0.825 0,0.275 0.44,1.1 0.44,0.825 0.44,1.155 z m 1.98,8.58002 q 0,2.09 -1.54,3.575 -1.54,1.485 -3.685,1.485 -2.145,0 -3.685,-1.485 -1.485,-1.485 -1.485,-3.575 0,-2.035 1.485,-3.52 1.54,-1.485 3.685,-1.485 2.145,0 3.685,1.485 1.54,1.485 1.54,3.52 z m 2.365,2.64 q 0,2.695 -2.42,4.62 -2.365,1.925 -5.17,1.925 -2.805,0 -5.115,-1.87 -2.475,-1.98 -2.475,-4.675 0.99,1.87 3.245,2.915 2.09,0.99 4.345,0.99 2.255,0 4.4,-0.99 2.2,-1.045 3.19,-2.915 z m -0.935,7.645 -6.655,3.905 -6.655,-3.905 13.31,0 z m 7.81,30.36 -6.27,0 0,-30.36 6.27,0 0,30.36 z m -7.865,-23.265 -13.2,0 0,-2.2 13.2,0 0,2.2 z m -0.11,7.15 q 0,2.64 -1.87,4.29 -1.815,1.65 -4.51,1.65 -3.465,0 -3.465,-2.75 0,-1.815 1.87,-2.42 1.705,-0.495 3.41,-0.99 1.87,-0.825 1.87,-3.025 0,-1.155 -0.66,-1.815 1.32,0.275 2.31,1.925 1.045,1.65 1.045,3.135 z m -3.355,-3.135 q 0,2.035 -1.76,2.53 -1.76,0.495 -3.52,0.88 -1.815,0.77 -1.815,3.245 0,0.88 0.22,1.32 -1.21,-0.605 -1.98,-1.98 -0.715,-1.43 -0.715,-2.86 0,-2.585 1.87,-4.18 1.87,-1.595 4.455,-1.595 3.245,0 3.245,2.64 z m 3.465,12.595 -13.2,0 0,-2.2 13.2,0 0,2.2 z m -14.795,6.655 -6.27,0 0,-30.36 6.27,0 0,30.36 z m 14.85,-5.17 -6.655,3.905 -6.655,-3.905 13.31,0 z m -5.005,-14.025 q 0,-1.375 -1.705,-1.375 -1.705,0 -1.705,1.375 0,1.43 1.705,1.43 1.705,0 1.705,-1.43 z m 0,6.215 q 0,-1.375 -1.705,-1.375 -1.705,0 -1.705,1.375 0,1.43 1.705,1.43 1.705,0 1.705,-1.43 z" />
    </g>
  </g>
</svg>
